<svg xmlns="http://www.w3.org/2000/svg" viewBox="0 0 120 120" width="120" height="120" role="img" aria-label="TB">

  <defs><linearGradient id="g" x1="0" y1="0" x2="1" y2="1"><stop offset="0" stop-color="#34343b"/><stop offset="1" stop-color="#1c1c20"/></linearGradient></defs>
  <circle cx="60" cy="60" r="58" fill="url(#g)"/>
  <circle cx="60" cy="60" r="56" fill="none" stroke="#bc312a" stroke-opacity=".7" stroke-width="3"/>
  <circle cx="30" cy="40" r="4" fill="#bc312a"/>
  <path d="M48.80 60L40.52 60L40.52 28.86L34.91 28.86L34.91 22.74L54.36 22.74L54.36 28.86L48.80 28.86L48.80 60ZM70.92 60L59.47 60L59.47 22.74L69.18 22.74Q71.57 22.74 73.71 23.11Q75.85 23.48 77.50 24.51Q79.16 25.55 80.10 27.45Q81.05 29.36 81.05 32.49L81.05 32.49Q81.05 34.75 80.38 36.29Q79.71 37.83 78.49 38.75Q77.27 39.67 75.57 39.99L75.57 39.99Q77.73 40.27 79.20 41.39Q80.68 42.52 81.44 44.41Q82.19 46.29 82.19 48.96L82.19 48.96Q82.19 51.86 81.44 53.95Q80.68 56.04 79.25 57.38Q77.83 58.71 75.73 59.36Q73.64 60 70.92 60L70.92 60ZM67.70 43.07L67.70 54.25L69.45 54.25Q72.17 54.25 73.20 52.87Q74.24 51.49 74.24 48.82L74.24 48.82Q74.24 46.71 73.78 45.46Q73.32 44.22 72.26 43.65Q71.20 43.07 69.41 43.07L69.41 43.07L67.70 43.07ZM67.70 28.26L67.70 37.64L69.31 37.64Q71.20 37.64 72.17 37.07Q73.13 36.49 73.48 35.39Q73.82 34.29 73.82 32.72L73.82 32.72Q73.82 31.25 73.29 30.26Q72.77 29.27 71.73 28.77Q70.69 28.26 69.13 28.26L69.13 28.26L67.70 28.26Z" transform="translate(0 18.63)" fill="#f8f8f6"/>
</svg>
